<svg xmlns="http://www.w3.org/2000/svg" viewBox="0 0 64 64"><path fill-rule="evenodd" d="M13.01 12.02h38v0c2.76 0 5 2.23 5 5v30 0c0 2.76-2.24 5-5 5h-38v0c-2.77 0-5-2.24-5-5v-30 0c0-2.77 2.23-5 5-5Zm3.16 36.8h0c1 .46 2.19.02 2.65-.98l4.79-10.4 3.97 3.97h0c.78.78 2.04.78 2.82-.01 .16-.17.3-.37.4-.58l4.59-9.96 3.98 5.31v0c.66.88 1.91 1.06 2.8.39 .32-.25.56-.59.69-.97l6-18v0c.34-1.05-.22-2.19-1.27-2.53 -1.05-.35-2.19.21-2.53 1.26l-4.8 14.37 -3.71-4.95v-.001c-.67-.89-1.92-1.07-2.81-.4 -.27.19-.48.46-.62.76l-4.8 10.39 -3.98-3.97v0c-.79-.79-2.05-.79-2.83 0 -.17.16-.31.36-.41.57l-6.01 12.99v0c-.47 1-.03 2.19.97 2.65Z" fill="#55534E" /></svg>